<svg width="16" height="16" viewBox="0 0 16 16" fill="none" xmlns="http://www.w3.org/2000/svg">
<g clip-path="url(#clip0_8_2)">
<rect x="1" y="2" width="14" height="12" fill="white"/>
<path d="M13.3783 -0.0300293H2.65164C1.16997 -0.0300293 -0.0300293 1.17164 -0.0300293 2.65331V13.3783C-0.0300293 14.86 1.16997 16.0616 2.65164 16.0616H13.3783C14.86 16.0616 16.0616 14.86 16.0616 13.3783V2.65331C16.0616 1.17164 14.86 -0.0300293 13.3783 -0.0300293ZM14.72 7.83663C14.37 7.79441 14.0177 7.77275 13.6633 7.77164C13.3844 7.77164 13.1083 7.78497 12.835 7.81164C11.8583 7.90497 10.9233 8.15997 10.0616 8.55164C8.03997 9.47164 6.41997 11.145 5.5833 13.2483H2.65164C3.7183 9.58497 6.52997 6.74497 10.0616 5.5783V4.47997V2.78497H12.835V3.97997V5.02997C13.1083 5.00886 13.3844 4.9983 13.6633 4.9983C14.0166 4.99941 14.3689 5.01663 14.72 5.04997V7.83663ZM12.835 13.1716H10.0616V9.7183C10.9066 9.26664 11.845 8.97164 12.835 8.86497V13.1716ZM2.83997 2.78164H5.6133V6.87664C4.5133 7.79997 3.57164 8.91163 2.83997 10.17V2.78164Z" fill="url(#paint0_linear_8_2)"/>
</g>
<defs>
<linearGradient id="paint0_linear_8_2" x1="-0.0308628" y1="16.0621" x2="-0.0308628" y2="-0.0300293" gradientUnits="userSpaceOnUse">
<stop offset="0.0673077" stop-color="#6C60FE"/>
<stop offset="1" stop-color="#8A7BFF"/>
</linearGradient>
<clipPath id="clip0_8_2">
<rect width="16" height="16" fill="white"/>
</clipPath>
</defs>
</svg>
